<svg width="48" height="48" viewBox="0 0 48 48" fill="none" xmlns="http://www.w3.org/2000/svg">
<g clip-path="url(#clip0_153_311)">
<rect width="48" height="48" fill="white"/>
<path d="M9.48687 37.6257C9.51244 37.5746 9.55891 37.538 9.61603 37.538C9.75919 37.5379 10.0772 37.5773 10.5944 37.8443C11.1305 38.1211 11.3395 38.355 11.416 38.4684C11.446 38.5129 11.4419 38.5682 11.4167 38.6155C11.2846 38.8632 10.8636 39.6902 10.7273 40.4065C10.6146 40.9987 10.66 41.8718 10.6851 42.2241C10.6916 42.3146 10.6346 42.3982 10.548 42.4252C10.2098 42.5303 9.37438 42.8051 8.84719 43.1074C8.12664 43.5205 7.18922 44.4396 7.18922 44.4396C7.18922 44.4396 7.396 43.1432 7.3156 42.3166C7.25677 41.7117 6.99683 40.8715 6.88659 40.5348C6.85835 40.4486 6.89363 40.3537 6.97119 40.3065C7.27303 40.1231 8.01129 39.6546 8.4289 39.2198C8.93049 38.6975 9.3582 37.8828 9.48687 37.6257Z" fill="#CA863D"/>
<path d="M9.68904 41.1907C9.50557 41.546 9.06876 41.6854 8.7134 41.5019C8.35804 41.3184 8.21869 40.8816 8.40217 40.5262C8.58564 40.1709 9.02245 40.0315 9.37781 40.215C9.73317 40.3985 9.87251 40.8353 9.68904 41.1907Z" fill="white"/>
<path d="M8.71602 41.2995L8.87688 41.3826L7.21584 44.5997L7.05498 44.5167L8.71602 41.2995Z" fill="white"/>
<path d="M9.75138 36.9391C9.79805 36.8487 9.88969 36.7913 9.99054 36.8046C10.1846 36.8303 10.5434 36.9106 11.0251 37.1593C11.5068 37.408 11.7801 37.654 11.9134 37.7974C11.9826 37.8719 11.9889 37.9798 11.9422 38.0702L11.8426 38.2631C11.7799 38.3847 11.6079 38.4055 11.5079 38.3122C11.3421 38.1574 11.0759 37.9423 10.7166 37.7568C10.3574 37.5713 10.0278 37.4789 9.80563 37.4333C9.67164 37.4058 9.58904 37.2535 9.65179 37.132L9.75138 36.9391Z" fill="#CA863D"/>
<path d="M34.9482 8.76982C34.9482 8.76982 26.4451 16.0811 21.8503 21.5574C17.4743 26.7728 12.2657 35.7606 11.5343 37.0348C11.4838 37.1228 11.3762 37.15 11.2861 37.1035L10.8803 36.894C10.7831 36.8438 10.7448 36.7282 10.8019 36.6348C11.6067 35.3187 17.047 26.5044 21.5018 21.3774C26.2231 15.9437 34.9482 8.76982 34.9482 8.76982Z" fill="#CA863D"/>
<path d="M9.37069 33.2778C9.37069 33.2778 9.14027 32.6099 9.00781 32.2706C8.91333 32.0286 8.85471 31.6827 8.8237 31.4537C8.81675 31.4024 8.88607 31.3805 8.91201 31.4254C9.00843 31.5921 9.15133 31.8216 9.28734 31.9735C9.46792 32.1751 9.80772 32.4313 9.80772 32.4313C9.80772 32.4313 9.47387 31.6376 9.42399 31.0981C9.38638 30.6911 9.48038 30.1045 9.52239 29.8718C9.52956 29.8321 9.57968 29.8204 9.60447 29.8522L10.0345 30.4042C10.0345 30.4042 10.0632 29.9279 10.1197 29.6284C10.1519 29.4578 10.2131 29.2385 10.2612 29.0769C10.2759 29.0275 10.3508 29.0346 10.3582 29.0856C10.3906 29.3066 10.4546 29.6378 10.5678 29.8598C10.76 30.2362 11.2841 30.671 11.2841 30.671C11.2841 30.671 11.0841 29.7123 11.029 29.0888C10.9903 28.6514 10.9921 28.0306 10.9958 27.7325C10.9967 27.6577 11.0818 27.6129 11.15 27.6437C11.246 27.6869 11.3592 27.7163 11.3986 27.64C11.63 27.1919 11.916 26.3936 12.247 25.9969C12.7446 25.4003 12.9761 25.054 13.0816 24.8728C13.098 24.8447 13.1646 24.8609 13.164 24.8934C13.161 25.0561 13.1535 25.2923 13.1347 25.4686C13.1015 25.7796 12.9954 26.2572 12.9954 26.2572C12.9954 26.2572 13.9563 23.1919 14.8883 21.3695C16.362 18.4882 18.2856 17.7579 19.7579 14.9915C19.8253 14.8648 19.9129 14.6945 19.9726 14.5776C19.9936 14.5364 20.0538 14.5467 20.0588 14.5927C20.0739 14.7317 20.0914 14.9404 20.0823 15.096C20.0664 15.3694 19.9504 15.7847 19.9504 15.7847C19.9504 15.7847 23.4412 13.3379 24.6464 11.0198C24.8614 10.6063 25.1081 9.99594 25.2246 9.69922C25.253 9.62693 25.3492 9.61885 25.3841 9.68823C25.4409 9.80118 25.5042 9.95303 25.5107 10.0787C25.5507 10.8561 24.9336 12.2403 24.9336 12.2403C24.9336 12.2403 25.6966 10.616 26.3926 9.71417C27.0081 8.91658 27.8127 8.42932 28.2706 7.90895C28.3786 7.78625 28.4731 7.63223 28.5379 7.51497C28.5765 7.44514 28.6747 7.44833 28.6937 7.52582C28.7105 7.59435 28.7239 7.6767 28.7236 7.76444C28.7224 8.11621 28.3893 8.60086 28.3893 8.60086C28.3893 8.60086 29.1226 7.41251 29.7389 6.7751C30.0364 6.46742 30.4936 6.09479 30.7624 5.88283C30.8041 5.84991 30.8625 5.90311 30.8358 5.94907C30.7415 6.11138 30.6259 6.32953 30.5694 6.51018C30.4578 6.86707 30.4568 7.46109 30.4568 7.46109C30.4568 7.46109 32.9692 4.35763 35.2231 3.42631C37.4719 2.49712 41.316 2.96464 41.8741 3.03914C41.9161 3.04474 41.9459 3.07536 41.9508 3.11744C42.0103 3.62545 42.3488 6.82556 41.6745 8.76444C40.8346 11.1795 39.9879 12.6973 37.9123 14.2744C37.0002 14.9674 36.1941 15.0713 35.1429 15.241C33.5157 15.5038 31.8431 15.1031 31.8431 15.1031C31.8431 15.1031 33.5274 15.6998 34.9854 15.7903C36.0267 15.855 37.3232 15.4739 37.8669 15.2943C37.9523 15.2661 38.0281 15.3599 37.9792 15.4353C37.4932 16.1856 35.8714 18.5698 34.215 19.6702C32.4392 20.8498 31.3896 21.5317 29.3459 22.1384C27.4432 22.7032 24.3005 22.7497 24.3005 22.7497C24.3005 22.7497 27.1925 23.0608 29.0117 22.7857C30.2387 22.6001 31.8785 22.0117 32.7273 21.6856C32.7817 21.6647 32.8251 21.7526 32.7759 21.7839C32.6133 21.8873 32.4391 22 32.2973 22.0963C31.4434 22.676 30.4759 23.6813 29.8104 24.4701C27.6978 26.974 27.5689 28.2303 24.5347 29.3139C23.0819 29.8327 21.0649 30.1712 21.0649 30.1712C21.0649 30.1712 22.2196 30.3635 22.9668 30.3963C23.3404 30.4128 23.8223 30.3987 24.2014 30.3811C24.2597 30.3784 24.2719 30.4674 24.2149 30.4798C23.7546 30.5795 23.1208 30.7116 22.6358 30.7931C21.604 30.9663 19.9772 31.1232 19.9772 31.1232C19.9772 31.1232 20.7975 31.2355 21.3266 31.2523C21.5818 31.2604 21.9001 31.2504 22.176 31.2367C22.2844 31.2314 22.3175 31.3826 22.2153 31.4193C22.0257 31.4875 21.8203 31.5575 21.6478 31.6073C20.5084 31.9363 18.6375 32.0081 18.6375 32.0081C18.6375 32.0081 19.4612 32.2815 20.0093 32.338C20.4074 32.379 20.9458 32.335 21.2994 32.2953C21.3546 32.2891 21.3757 32.3675 21.3241 32.3878C20.9078 32.5518 20.1943 32.8133 19.651 32.9097C18.9748 33.0298 18.5232 33.1121 17.8664 33.3127C17.075 33.5543 16.1281 34.181 16.1281 34.181C16.1281 34.181 17.2479 33.7581 17.9884 33.5649C18.7051 33.3779 19.8501 33.2017 19.8501 33.2017C19.8501 33.2017 18.3192 34.2823 17.2236 34.7466C15.91 35.3032 14.5282 35.6253 14.5282 35.6253C14.5282 35.6253 15.5486 35.7303 15.9803 35.7444C16.2611 35.7535 16.5366 35.7565 16.7274 35.7574C16.7798 35.7576 16.7936 35.8308 16.7448 35.8497C16.2088 36.057 14.9036 36.5558 14.263 36.7497C13.4877 36.9843 12.0302 36.9212 12.0302 36.9212C12.0302 36.9212 17.415 27.8051 21.6153 22.5093C26.9833 15.7413 37.1568 6.82109 37.1568 6.82109C37.1568 6.82109 25.4863 15.8918 20.3705 21.8666C15.9483 27.0315 10.5365 36.15 10.5365 36.15C10.5365 36.15 10.3359 35.9722 9.74954 34.9869C9.24704 34.1425 8.92434 33.0965 8.83055 32.7707C8.81923 32.7313 8.85445 32.708 8.88374 32.7366C8.93638 32.788 9.01539 32.8761 9.12336 33.024C9.33339 33.3117 9.37069 33.2778 9.37069 33.2778Z" fill="#CA863D"/>
<path d="M4.72656 4.72656H31.9898L31.4792 5.23718C31.3543 5.36206 31.1784 5.42162 31.0033 5.39828L30.778 5.36823C30.6452 5.35053 30.5104 5.38014 30.4011 5.45753C30.2385 5.57258 29.981 5.76531 29.7218 6.00231C29.4212 6.27716 29.0721 6.58961 28.8941 6.74832C28.8179 6.81633 28.7218 6.8574 28.6199 6.86588L28.4151 6.88296C28.2871 6.89362 28.1736 6.96858 28.109 7.07952C28.0231 7.22697 27.8962 7.43197 27.7846 7.56156C27.4329 7.9699 27.1808 7.99127 26.7923 8.36481C26.4992 8.64663 26.1933 8.98922 26.081 9.11689C26.0519 9.15003 26.0125 9.17203 25.969 9.17929L25.8234 9.20355C25.7779 9.21113 25.7312 9.20183 25.6921 9.17739L25.4962 9.05493C25.4244 9.01006 25.3315 9.0184 25.2689 9.07535L24.9091 9.40241C24.8743 9.43404 24.829 9.45156 24.782 9.45156H9.45156V29.2493C9.45156 29.2493 9.02631 29.5328 8.97906 30.0998C8.96138 30.312 8.94696 30.6016 8.93888 30.7822C8.93458 30.8781 8.85955 30.9559 8.76382 30.9632L8.52463 30.9816C8.41356 30.9902 8.33405 31.0923 8.35451 31.2019C8.38241 31.3512 8.42213 31.5536 8.45931 31.7063C8.49627 31.8581 8.55414 32.057 8.59611 32.1969C8.62494 32.293 8.5748 32.3954 8.48086 32.4306L8.40709 32.4583C8.32654 32.4885 8.27665 32.5692 8.2877 32.6545C8.32225 32.9213 8.40894 33.4979 8.55381 33.8798C8.75026 34.3977 9.26256 35.1083 9.26256 35.1083V36.4019C9.26256 36.4214 9.25986 36.4398 9.25378 36.4583C9.18621 36.6642 8.73905 37.9904 8.27031 38.5103C7.81065 39.0202 7.18356 39.5498 6.80556 39.7861C6.68503 39.8614 6.51665 39.9589 6.39472 40.0285C6.30734 40.0783 6.27274 40.1879 6.31182 40.2806C6.4256 40.5505 6.63919 41.1237 6.71106 41.7706C6.75831 42.1958 6.71106 42.5266 6.71106 42.5266H4.72656V4.72656Z" fill="#FFDAB1"/>
<path d="M11.388 40.1616C11.5532 39.642 11.5984 39.3465 12.0023 38.9803C12.1501 38.8462 12.2358 38.6928 12.3803 38.5551C12.4821 38.458 12.6046 38.1224 12.6681 37.9326C12.6946 37.8535 12.7681 37.7991 12.8515 37.7991H37.6707V17.021C37.6707 16.9825 37.6821 16.9455 37.7038 16.9136C37.8646 16.6781 38.5568 15.6476 38.5568 15.3553C38.5568 15.1334 38.5568 14.9328 38.5568 14.8248C38.5568 14.7714 38.5793 14.7206 38.6181 14.6839C38.8355 14.4786 39.6115 13.7208 40.6475 12.4258C41.3116 11.5956 41.9058 10.2286 42.2003 9.48941C42.2396 9.39076 42.3957 9.42026 42.3957 9.52645V42.5241H11.421C11.3224 42.5241 11.2405 42.4485 11.2351 42.35C11.2207 42.0873 11.2023 41.5802 11.2463 41.2011C11.2926 40.8007 11.2619 40.5583 11.388 40.1616Z" fill="#FFDAB1"/>
</g>
<defs>
<clipPath id="clip0_153_311">
<rect width="48" height="48" fill="white"/>
</clipPath>
</defs>
</svg>
